HIERARCHY
ROOT mixamorig:Hips
{
  OFFSET 0.000000 0.000000 0.000000
  CHANNELS 6 Xposition Yposition Zposition Zrotation Xrotation Yrotation
  JOINT mixamorig:Spine
  {
    OFFSET 0.000000 0.035619 0.000000
    CHANNELS 3 Zrotation Xrotation Yrotation
    JOINT mixamorig:Spine1
    {
      OFFSET 0.000000 0.050888 0.000000
      CHANNELS 3 Zrotation Xrotation Yrotation
      JOINT mixamorig:Spine2
      {
        OFFSET 0.000000 0.061066 0.000000
        CHANNELS 3 Zrotation Xrotation Yrotation
        JOINT mixamorig:Neck
        {
          OFFSET 0.000000 0.059252 0.000000
          CHANNELS 3 Zrotation Xrotation Yrotation
          JOINT mixamorig:Head
          {
            OFFSET 0.000000 0.071170 0.000000
            CHANNELS 3 Zrotation Xrotation Yrotation
            End Site
            {
              OFFSET 0.000000 0.017792 0.000000
            }
          }
        }
        JOINT mixamorig:LeftShoulder
        {
          OFFSET 0.074290 0.000000 0.000000
          CHANNELS 3 Zrotation Xrotation Yrotation
          JOINT mixamorig:LeftArm
          {
            OFFSET 0.101405 0.000000 0.000000
            CHANNELS 3 Zrotation Xrotation Yrotation
            JOINT mixamorig:LeftForeArm
            {
              OFFSET 0.099990 0.000000 0.000000
              CHANNELS 3 Zrotation Xrotation Yrotation
              JOINT mixamorig:LeftHand
              {
                OFFSET 0.039351 0.000000 0.000000
                CHANNELS 3 Zrotation Xrotation Yrotation
                End Site
                {
                  OFFSET 0.009838 0.000000 0.000000
                }
              }
            }
          }
        }
        JOINT mixamorig:RightShoulder
        {
          OFFSET -0.080375 0.000000 0.000000
          CHANNELS 3 Zrotation Xrotation Yrotation
          JOINT mixamorig:RightArm
          {
            OFFSET -0.105053 0.000000 0.000000
            CHANNELS 3 Zrotation Xrotation Yrotation
            JOINT mixamorig:RightForeArm
            {
              OFFSET -0.095029 0.000000 0.000000
              CHANNELS 3 Zrotation Xrotation Yrotation
              JOINT mixamorig:RightHand
              {
                OFFSET -0.033246 0.000000 0.000000
                CHANNELS 3 Zrotation Xrotation Yrotation
                End Site
                {
                  OFFSET -0.008312 0.000000 0.000000
                }
              }
            }
          }
        }
      }
    }
  }
  JOINT mixamorig:LeftUpLeg
  {
    OFFSET 0.034820 -0.002734 0.000000
    CHANNELS 3 Zrotation Xrotation Yrotation
    JOINT mixamorig:LeftLeg
    {
      OFFSET 0.000000 -0.138877 0.000000
      CHANNELS 3 Zrotation Xrotation Yrotation
      JOINT mixamorig:LeftFoot
      {
        OFFSET 0.000000 -0.030734 -0.092202
        CHANNELS 3 Zrotation Xrotation Yrotation
        JOINT mixamorig:LeftToeBase
        {
          OFFSET 0.000000 0.000000 -0.063516
          CHANNELS 3 Zrotation Xrotation Yrotation
          End Site
          {
            OFFSET 0.000000 0.000000 -0.015879
          }
        }
      }
    }
  }
  JOINT mixamorig:RightUpLeg
  {
    OFFSET -0.036416 -0.002523 0.000000
    CHANNELS 3 Zrotation Xrotation Yrotation
    JOINT mixamorig:RightLeg
    {
      OFFSET 0.000000 -0.134886 0.000000
      CHANNELS 3 Zrotation Xrotation Yrotation
      JOINT mixamorig:RightFoot
      {
        OFFSET 0.000000 -0.029778 -0.089335
        CHANNELS 3 Zrotation Xrotation Yrotation
        JOINT mixamorig:RightToeBase
        {
          OFFSET 0.000000 0.000000 -0.059375
          CHANNELS 3 Zrotation Xrotation Yrotation
          End Site
          {
            OFFSET 0.000000 0.000000 -0.014844
          }
        }
      }
    }
  }
}
MOTION
Frames: 8
Frame Time: 0.03333333
0.319080 0.039906 0.457681 -26.378410 34.950999 126.545551 0.000000 0.000000 0.000000 0.000000 0.000000 0.000000 0.000000 0.000000 0.000000 -65.883076 -41.442668 -128.651221 -0.000000 -0.000000 0.000000 -46.718862 56.515188 -53.462296 -15.953634 -2.494623 15.200050 -12.138254 12.878834 -0.215921 87.293003 -41.482789 -41.673158 258.344190 -33.152330 170.961682 -23.768286 -9.622412 0.090625 -363.926921 -0.987016 -357.883354 -31.195918 -11.903033 40.954130 11.672841 15.304314 -125.663280 73.855185 -67.728107 357.581596 -78.177713 69.258471 79.998630 -55.493354 8.555819 -73.279537 -2.935608 -18.799906 -111.383344 367.815762 -77.587383 717.237161 -42.231022 64.601360 79.872028 -35.449993 -10.113155 -91.226851
0.319967 0.039219 0.458115 -25.918639 34.999036 125.171428 -0.000000 -0.000000 0.000000 -0.000000 -0.000000 0.000000 -0.000000 -0.000000 0.000000 -64.167651 -42.135432 -127.225116 -0.000000 -0.000000 -0.000000 -49.122937 55.983175 -49.712595 -15.576518 -2.175816 14.789384 -12.061528 11.055366 1.220437 85.924478 -43.244515 -44.816666 259.387852 -34.017406 171.368227 -21.794398 -8.797331 0.503004 -363.012258 -0.829915 -358.679441 -33.341190 -12.910458 41.396483 9.730072 11.727432 -122.293595 71.456161 -71.101607 364.689546 -78.324873 70.884146 79.998470 -53.869021 5.130455 -73.964317 -1.892737 -18.749612 -110.005328 367.972132 -78.471710 716.812559 -37.117548 63.268900 79.830148 -32.632617 -8.306847 -91.101083
0.320790 0.038458 0.458370 -25.544550 35.240683 123.198560 -0.000000 -0.000000 -0.000000 -0.000000 -0.000000 -0.000000 -0.000000 -0.000000 -0.000000 -62.431036 -43.114519 -125.285100 0.000000 0.000000 0.000000 -52.648235 54.748621 -44.579862 -15.161326 -1.754711 14.334452 -12.219931 10.135238 2.256568 85.062456 -44.747982 -47.220945 259.399573 -35.790267 171.396486 -20.322660 -8.257493 0.477283 -361.344021 -0.486028 -359.746499 -36.316616 -14.377636 42.070776 7.409735 7.416191 -118.077934 68.552073 -74.599408 373.453388 -77.888058 72.676779 79.997540 -51.086405 0.975261 -74.669383 -1.123371 -18.843347 -107.930373 367.150368 -79.421685 715.326708 -33.723270 62.520656 79.811982 -30.618249 -6.095872 -91.288660
0.321452 0.037723 0.458392 -25.243071 35.729436 120.347459 0.000000 -0.000000 -0.000000 0.000000 -0.000000 -0.000000 0.000000 -0.000000 -0.000000 -60.332934 -44.475561 -122.458189 0.000000 0.000000 0.000000 -57.038457 52.637640 -38.568375 -14.652097 -1.577181 14.111149 -12.815331 10.199862 3.013917 84.973746 -46.166644 -48.788382 258.124104 -38.778972 170.843118 -19.471120 -8.104689 -0.040743 -359.466713 -0.219291 -361.080539 -39.478382 -16.134587 43.108964 5.280109 3.179307 -113.182002 65.433121 -77.514559 382.134959 -73.975322 74.221662 79.990196 -47.106159 -2.934876 -74.739475 -0.506930 -18.831330 -104.940471 365.840779 -80.455023 713.170031 -31.853045 62.254923 79.812203 -29.092483 -4.104803 -91.340565
0.321854 0.037085 0.458123 -24.955216 36.487282 116.316424 -0.000000 0.000000 0.000000 -0.000000 0.000000 0.000000 -0.000000 0.000000 0.000000 -57.184682 -46.195961 -118.155579 0.000000 -0.000000 -0.000000 -61.834516 49.620310 -32.515782 -13.972985 -2.177862 14.548063 -13.798004 11.035801 3.675856 85.443827 -47.715653 -49.916164 255.088159 -43.270426 169.229079 -19.062086 -8.288506 -1.026436 -358.610337 -0.552044 -362.607635 -41.833417 -17.858314 44.694108 3.635521 -0.419716 -107.498235 61.936677 -79.703141 388.776676 -51.276327 74.848595 79.872546 -42.650806 -5.768084 -73.968325 0.440672 -18.274911 -100.812071 365.713009 -81.843532 711.613819 -30.210261 61.972606 79.804478 -27.255670 -2.485137 -90.716461
0.321897 0.036586 0.457496 -24.612179 37.512137 110.973963 -0.000000 -0.000000 -0.000000 -0.000000 -0.000000 -0.000000 -0.000000 -0.000000 -0.000000 -52.524927 -48.042214 -111.914818 -0.000000 -0.000000 0.000000 -66.513948 45.820311 -27.380042 -13.105789 -3.969570 16.023983 -14.996321 12.388657 4.344370 86.154639 -49.451874 -50.941916 249.618493 -49.196872 165.689738 -18.860706 -8.711908 -2.353519 -360.078379 -1.938083 -364.098226 -42.251179 -19.040168 46.925077 2.858954 -2.722959 -101.052122 61.975614 -81.631547 395.490385 -29.597287 74.614030 79.061081 -38.993478 -7.509204 -72.608950 1.994652 -16.762154 -95.528735 369.135564 -83.672729 712.685095 -29.059563 61.212230 79.783920 -25.023315 -1.685437 -89.178217
0.321515 0.036253 0.456460 -24.164753 38.775214 104.466511 0.000000 0.000000 0.000000 0.000000 0.000000 0.000000 0.000000 0.000000 0.000000 -46.554890 -49.646443 -103.787868 0.000000 0.000000 0.000000 -70.705296 41.343600 -23.682633 -12.108576 -6.821882 18.538735 -16.221055 13.963940 5.069563 86.848661 -51.317772 -52.058515 240.651130 -55.914776 158.826662 -18.670275 -9.254880 -3.784490 -364.360925 -4.411585 -365.352985 -40.293651 -19.218033 49.543144 2.977817 -3.231552 -94.076765 74.339481 -83.595959 410.317172 -24.709167 74.505458 78.313948 -36.733257 -8.715377 -70.780738 3.708848 -14.009046 -89.495030 380.600622 -85.478846 720.597302 -30.150666 59.715940 79.773474 -22.950746 -2.366921 -86.756803
0.320684 0.036098 0.455015 -23.608692 40.229176 97.134557 -0.000000 0.000000 0.000000 -0.000000 0.000000 0.000000 -0.000000 0.000000 0.000000 -40.019882 -50.770829 -94.387100 -0.000000 0.000000 0.000000 -74.273261 36.138986 -21.255750 -11.004729 -10.198613 21.758656 -17.271167 15.623170 5.753109 87.280517 -53.194298 -53.439333 226.170492 -62.212843 146.388846 -18.521471 -9.868304 -5.141010 -370.591682 -7.478819 -366.403901 -36.787578 -18.402150 51.943085 3.118786 -2.528662 -86.760025 100.827087 -84.652074 436.920909 -28.364874 74.690899 78.459233 -35.347344 -9.978935 -68.548138 4.723671 -10.217163 -83.229907 405.984463 -86.634587 741.056736 -33.958917 57.902758 79.794069 -21.607550 -4.091095 -83.791233
